<svg xmlns="http://www.w3.org/2000/svg" width="1702.667" height="160" preserveAspectRatio="xMidYMid meet" version="1.0" viewBox="0 0 1277 120"><metadata>Created by potrace 1.16, written by Peter Selinger 2001-2019</metadata><g fill="#1976d2" stroke="none"><path d="M7 1153 c-4 -3 -7 -264 -7 -580 l0 -573 6385 0 c6124 0 6385 1 6385 18 0 15 -60 30 -467 110 -699 139 -909 178 -1202 227 -637 106 -1199 174 -1791 216 -248 17 -1031 23 -1335 10 -345 -15 -518 -28 -1355 -101 -1320 -115 -1498 -125 -2165 -117 -360 4 -507 10 -675 26 -1062 104 -1759 241 -3301 650 -498 132 -463 124 -472 114z" transform="translate(0.000000,120.000000) scale(0.100000,-0.100000)"/></g></svg>