<?xml version="1.0" standalone="no"?>
<!DOCTYPE svg PUBLIC "-//W3C//DTD SVG 20010904//EN"
 "http://www.w3.org/TR/2001/REC-SVG-20010904/DTD/svg10.dtd">
<svg version="1.0" xmlns="http://www.w3.org/2000/svg"
 width="1277.000000pt" height="120.000000pt" viewBox="0 0 1277.000000 120.000000"
 preserveAspectRatio="xMidYMid meet">
<metadata>
Created by potrace 1.16, written by Peter Selinger 2001-2019
</metadata>
<g transform="translate(0.000000,120.000000) scale(0.100000,-0.100000)"
fill="#1976d2" stroke="none">
<path d="M7 1153 c-4 -3 -7 -264 -7 -580 l0 -573 6385 0 c6124 0 6385 1 6385
18 0 15 -60 30 -467 110 -699 139 -909 178 -1202 227 -637 106 -1199 174
-1791 216 -248 17 -1031 23 -1335 10 -345 -15 -518 -28 -1355 -101 -1320 -115
-1498 -125 -2165 -117 -360 4 -507 10 -675 26 -1062 104 -1759 241 -3301 650
-498 132 -463 124 -472 114z"/>
</g>
</svg>
